<svg
   viewBox="0 0 200 27.5"
   version="1.1"
   xml:space="preserve"
   xmlns="http://www.w3.org/2000/svg"
   xmlns:svg="http://www.w3.org/2000/svg">
    <g transform="translate(5, 5)"><path d="M 2.8860356,1.193931
C 2.4632488,0.72417059 2.1173329,0.33572978 2.1173329,0.33072858
c 0,-0.0229926 0.2387853,-0.13893721 0.3831591,-0.18604925
C 2.913267,0.00998169 3.1409007,4.0360089e-4 5.9388577,3.7821799e-6 7.8246383,-2.6535013e-4 8.818887,0.01383204 8.846283,0.04122799 8.8499177,0.04486271 8.5828927,0.49788178 8.2528944,1.047938
L 7.6528976,2.0480406
H 5.653818 3.6547379
Z" fill="#000"/><path d="M 8.1508504,8.0435605
C 7.750647,7.7563645 7.4167289,7.5145085 7.4088105,7.5061025 7.4008918,7.4976977 7.512139,6.3163012 7.6560263,4.8807797
L 7.9176401,2.27074 8.5599568,1.201782
C 9.2894761,-0.01230034 9.1951871,0.09651527 9.4218794,0.2070678 9.5961468,0.29205398 9.7844512,0.4766093 9.8641977,0.64057908 9.980081,0.87885143 9.9987957,0.99310034 9.9999033,1.4690214 10.000883,1.8959339 10.000393,1.90158 9.6835413,5.0678471 9.5089953,6.8120303 9.3598964,8.251115 9.3522113,8.2658132 9.3390119,8.2910601 8.9090892,8.5703529 8.8882651,8.5672099 8.8828907,8.5663931 8.5510534,8.3307561 8.1508504,8.0435605
Z" fill="#000"/><path d="m 7.4498212,17.393932
c -0.00695,-0.01818 -0.197829,-0.496033 -0.4241783,-1.06188
L 6.6140988,15.30324 6.8751967,12.692148
c 0.143604,-1.4361 0.2682678,-2.617745 0.2770303,-2.625877 0.033693,-0.03127 1.6859126,-1.0566068 1.7142082,-1.0638088 0.022752,-0.00579 0.227505,0.1259886 0.3902006,0.2511315 0.00606,0.00466 -0.6327488,6.3766683 -0.654698,6.5305583 -0.098129,0.687999 -0.287116,1.111421 -0.6146753,1.377168 -0.1035731,0.08403 -0.3775931,0.230205 -0.4759795,0.253914 -0.037883,0.0091 -0.05166,0.0044 -0.061462,-0.0213
z" fill="#000"/><path d="M 1.3135242,17.529288
C 1.1303815,17.512972 0.90371529,17.468459 0.77063773,17.422674 0.6522089,17.381928 0.42166257,17.262388 0.42863265,17.245341
c 0.002818,-0.0068 0.43401076,-0.402446 0.95824535,-0.879104
l 0.9531543,-0.866651 1.9926997,0.0042 1.9926993,0.0042 0.3987148,0.996589
c 0.2192926,0.548124 0.396565,0.998738 0.3939378,1.001366 -0.00261,0.0026 -0.107844,0.01315 -0.2338151,0.02338 -0.2666917,0.02166 -5.3275981,0.02161 -5.5707446,-4.6e-5
z" fill="#000"/><path d="M 0.13412757,16.875029
C 0.03037524,16.643837 -0.01359665,16.336252 0.00364701,15.962311 0.01264804,15.767106 0.65149829,9.2762147 0.66219089,9.2713201
c 0.001715,-7.76e-4 0.10178347,-0.063001 0.22234698,-0.138245 0.12056353,-0.075244 0.22795793,-0.136807 0.23865423,-0.136807 0.010696,0 0.3509942,0.2368115 0.7562176,0.526248 0.5498145,0.3927126 0.7367704,0.5352969 0.7367704,0.5619089 0,0.06695 -0.4971973,5.031391 -0.5114066,5.106317 -0.013436,0.07085 -0.062627,0.118712 -0.9567126,0.930884 -0.51840112,0.470908 -0.94822992,0.856196 -0.95517509,0.856196 -0.006947,0 -0.0333863,-0.04626 -0.0587582,-0.102793
z" fill="#000"/><path d="M 0.94663964,8.4388407
C 0.80712374,8.3402954 0.76456817,8.300775 0.76402623,8.2692502 0.76214761,8.159247 1.4093124,1.7937065 1.4418888,1.6019038 1.5078777,1.2133714 1.6137986,0.91081038 1.758341,0.69796225 1.798911,0.63822065 1.839131,0.58499856 1.847718,0.57969147 1.856308,0.57438247 2.2093852,0.95454417 2.6323399,1.4244912
L 3.4013489,2.278941 3.142384,4.8597057
C 2.9999533,6.2791263 2.8834195,7.449247 2.8834195,7.4599747
c 0,0.015862 -1.7270302,1.1103051 -1.7484742,1.1080316 -0.00351,-3.729e-4 -0.088257,-0.058498 -0.18830566,-0.1291656
z" fill="#000"/></g><g transform="translate(17, 5)"><path d="M 8.1508504,8.0435605
C 7.750647,7.7563645 7.4167289,7.5145085 7.4088105,7.5061025 7.4008918,7.4976977 7.512139,6.3163012 7.6560263,4.8807797
L 7.9176401,2.27074 8.5599568,1.201782
C 9.2894761,-0.01230034 9.1951871,0.09651527 9.4218794,0.2070678 9.5961468,0.29205398 9.7844512,0.4766093 9.8641977,0.64057908 9.980081,0.87885143 9.9987957,0.99310034 9.9999033,1.4690214 10.000883,1.8959339 10.000393,1.90158 9.6835413,5.0678471 9.5089953,6.8120303 9.3598964,8.251115 9.3522113,8.2658132 9.3390119,8.2910601 8.9090892,8.5703529 8.8882651,8.5672099 8.8828907,8.5663931 8.5510534,8.3307561 8.1508504,8.0435605
Z" fill="#000"/><path d="m 7.4498212,17.393932
c -0.00695,-0.01818 -0.197829,-0.496033 -0.4241783,-1.06188
L 6.6140988,15.30324 6.8751967,12.692148
c 0.143604,-1.4361 0.2682678,-2.617745 0.2770303,-2.625877 0.033693,-0.03127 1.6859126,-1.0566068 1.7142082,-1.0638088 0.022752,-0.00579 0.227505,0.1259886 0.3902006,0.2511315 0.00606,0.00466 -0.6327488,6.3766683 -0.654698,6.5305583 -0.098129,0.687999 -0.287116,1.111421 -0.6146753,1.377168 -0.1035731,0.08403 -0.3775931,0.230205 -0.4759795,0.253914 -0.037883,0.0091 -0.05166,0.0044 -0.061462,-0.0213
z" fill="#000"/></g><g transform="translate(29, 5)"><path d="M 2.8860356,1.193931
C 2.4632488,0.72417059 2.1173329,0.33572978 2.1173329,0.33072858
c 0,-0.0229926 0.2387853,-0.13893721 0.3831591,-0.18604925
C 2.913267,0.00998169 3.1409007,4.0360089e-4 5.9388577,3.7821799e-6 7.8246383,-2.6535013e-4 8.818887,0.01383204 8.846283,0.04122799 8.8499177,0.04486271 8.5828927,0.49788178 8.2528944,1.047938
L 7.6528976,2.0480406
H 5.653818 3.6547379
Z" fill="#000"/><path d="M 8.1508504,8.0435605
C 7.750647,7.7563645 7.4167289,7.5145085 7.4088105,7.5061025 7.4008918,7.4976977 7.512139,6.3163012 7.6560263,4.8807797
L 7.9176401,2.27074 8.5599568,1.201782
C 9.2894761,-0.01230034 9.1951871,0.09651527 9.4218794,0.2070678 9.5961468,0.29205398 9.7844512,0.4766093 9.8641977,0.64057908 9.980081,0.87885143 9.9987957,0.99310034 9.9999033,1.4690214 10.000883,1.8959339 10.000393,1.90158 9.6835413,5.0678471 9.5089953,6.8120303 9.3598964,8.251115 9.3522113,8.2658132 9.3390119,8.2910601 8.9090892,8.5703529 8.8882651,8.5672099 8.8828907,8.5663931 8.5510534,8.3307561 8.1508504,8.0435605
Z" fill="#000"/><path d="M 1.3135242,17.529288
C 1.1303815,17.512972 0.90371529,17.468459 0.77063773,17.422674 0.6522089,17.381928 0.42166257,17.262388 0.42863265,17.245341
c 0.002818,-0.0068 0.43401076,-0.402446 0.95824535,-0.879104
l 0.9531543,-0.866651 1.9926997,0.0042 1.9926993,0.0042 0.3987148,0.996589
c 0.2192926,0.548124 0.396565,0.998738 0.3939378,1.001366 -0.00261,0.0026 -0.107844,0.01315 -0.2338151,0.02338 -0.2666917,0.02166 -5.3275981,0.02161 -5.5707446,-4.6e-5
z" fill="#000"/><path d="M 0.13412757,16.875029
C 0.03037524,16.643837 -0.01359665,16.336252 0.00364701,15.962311 0.01264804,15.767106 0.65149829,9.2762147 0.66219089,9.2713201
c 0.001715,-7.76e-4 0.10178347,-0.063001 0.22234698,-0.138245 0.12056353,-0.075244 0.22795793,-0.136807 0.23865423,-0.136807 0.010696,0 0.3509942,0.2368115 0.7562176,0.526248 0.5498145,0.3927126 0.7367704,0.5352969 0.7367704,0.5619089 0,0.06695 -0.4971973,5.031391 -0.5114066,5.106317 -0.013436,0.07085 -0.062627,0.118712 -0.9567126,0.930884 -0.51840112,0.470908 -0.94822992,0.856196 -0.95517509,0.856196 -0.006947,0 -0.0333863,-0.04626 -0.0587582,-0.102793
z" fill="#000"/><path d="M 2.1511766,9.2969995
C 1.7651082,9.0214566 1.4469599,8.7940329 1.4441803,8.791614 1.4414032,8.7892044 1.8132277,8.5536512 2.2704618,8.2681831
l 0.8313354,-0.5190329 2.0242731,6.1e-6 2.0242732,6.2e-6 0.7073168,0.5032949
C 8.2466848,8.5292696 8.565368,8.7603056 8.565845,8.7658708 8.5663351,8.7714372 8.1987294,9.0059389 7.7489717,9.2869877
L 6.9312306,9.7979867
H 4.8921748 2.8531194
Z" fill="#000"/></g><g transform="translate(41, 5)"><path d="M 2.8860356,1.193931
C 2.4632488,0.72417059 2.1173329,0.33572978 2.1173329,0.33072858
c 0,-0.0229926 0.2387853,-0.13893721 0.3831591,-0.18604925
C 2.913267,0.00998169 3.1409007,4.0360089e-4 5.9388577,3.7821799e-6 7.8246383,-2.6535013e-4 8.818887,0.01383204 8.846283,0.04122799 8.8499177,0.04486271 8.5828927,0.49788178 8.2528944,1.047938
L 7.6528976,2.0480406
H 5.653818 3.6547379
Z" fill="#000"/><path d="M 8.1508504,8.0435605
C 7.750647,7.7563645 7.4167289,7.5145085 7.4088105,7.5061025 7.4008918,7.4976977 7.512139,6.3163012 7.6560263,4.8807797
L 7.9176401,2.27074 8.5599568,1.201782
C 9.2894761,-0.01230034 9.1951871,0.09651527 9.4218794,0.2070678 9.5961468,0.29205398 9.7844512,0.4766093 9.8641977,0.64057908 9.980081,0.87885143 9.9987957,0.99310034 9.9999033,1.4690214 10.000883,1.8959339 10.000393,1.90158 9.6835413,5.0678471 9.5089953,6.8120303 9.3598964,8.251115 9.3522113,8.2658132 9.3390119,8.2910601 8.9090892,8.5703529 8.8882651,8.5672099 8.8828907,8.5663931 8.5510534,8.3307561 8.1508504,8.0435605
Z" fill="#000"/><path d="m 7.4498212,17.393932
c -0.00695,-0.01818 -0.197829,-0.496033 -0.4241783,-1.06188
L 6.6140988,15.30324 6.8751967,12.692148
c 0.143604,-1.4361 0.2682678,-2.617745 0.2770303,-2.625877 0.033693,-0.03127 1.6859126,-1.0566068 1.7142082,-1.0638088 0.022752,-0.00579 0.227505,0.1259886 0.3902006,0.2511315 0.00606,0.00466 -0.6327488,6.3766683 -0.654698,6.5305583 -0.098129,0.687999 -0.287116,1.111421 -0.6146753,1.377168 -0.1035731,0.08403 -0.3775931,0.230205 -0.4759795,0.253914 -0.037883,0.0091 -0.05166,0.0044 -0.061462,-0.0213
z" fill="#000"/><path d="M 1.3135242,17.529288
C 1.1303815,17.512972 0.90371529,17.468459 0.77063773,17.422674 0.6522089,17.381928 0.42166257,17.262388 0.42863265,17.245341
c 0.002818,-0.0068 0.43401076,-0.402446 0.95824535,-0.879104
l 0.9531543,-0.866651 1.9926997,0.0042 1.9926993,0.0042 0.3987148,0.996589
c 0.2192926,0.548124 0.396565,0.998738 0.3939378,1.001366 -0.00261,0.0026 -0.107844,0.01315 -0.2338151,0.02338 -0.2666917,0.02166 -5.3275981,0.02161 -5.5707446,-4.6e-5
z" fill="#000"/><path d="M 2.1511766,9.2969995
C 1.7651082,9.0214566 1.4469599,8.7940329 1.4441803,8.791614 1.4414032,8.7892044 1.8132277,8.5536512 2.2704618,8.2681831
l 0.8313354,-0.5190329 2.0242731,6.1e-6 2.0242732,6.2e-6 0.7073168,0.5032949
C 8.2466848,8.5292696 8.565368,8.7603056 8.565845,8.7658708 8.5663351,8.7714372 8.1987294,9.0059389 7.7489717,9.2869877
L 6.9312306,9.7979867
H 4.8921748 2.8531194
Z" fill="#000"/></g><g transform="translate(53, 5)"><path d="M 8.1508504,8.0435605
C 7.750647,7.7563645 7.4167289,7.5145085 7.4088105,7.5061025 7.4008918,7.4976977 7.512139,6.3163012 7.6560263,4.8807797
L 7.9176401,2.27074 8.5599568,1.201782
C 9.2894761,-0.01230034 9.1951871,0.09651527 9.4218794,0.2070678 9.5961468,0.29205398 9.7844512,0.4766093 9.8641977,0.64057908 9.980081,0.87885143 9.9987957,0.99310034 9.9999033,1.4690214 10.000883,1.8959339 10.000393,1.90158 9.6835413,5.0678471 9.5089953,6.8120303 9.3598964,8.251115 9.3522113,8.2658132 9.3390119,8.2910601 8.9090892,8.5703529 8.8882651,8.5672099 8.8828907,8.5663931 8.5510534,8.3307561 8.1508504,8.0435605
Z" fill="#000"/><path d="m 7.4498212,17.393932
c -0.00695,-0.01818 -0.197829,-0.496033 -0.4241783,-1.06188
L 6.6140988,15.30324 6.8751967,12.692148
c 0.143604,-1.4361 0.2682678,-2.617745 0.2770303,-2.625877 0.033693,-0.03127 1.6859126,-1.0566068 1.7142082,-1.0638088 0.022752,-0.00579 0.227505,0.1259886 0.3902006,0.2511315 0.00606,0.00466 -0.6327488,6.3766683 -0.654698,6.5305583 -0.098129,0.687999 -0.287116,1.111421 -0.6146753,1.377168 -0.1035731,0.08403 -0.3775931,0.230205 -0.4759795,0.253914 -0.037883,0.0091 -0.05166,0.0044 -0.061462,-0.0213
z" fill="#000"/><path d="M 0.94663964,8.4388407
C 0.80712374,8.3402954 0.76456817,8.300775 0.76402623,8.2692502 0.76214761,8.159247 1.4093124,1.7937065 1.4418888,1.6019038 1.5078777,1.2133714 1.6137986,0.91081038 1.758341,0.69796225 1.798911,0.63822065 1.839131,0.58499856 1.847718,0.57969147 1.856308,0.57438247 2.2093852,0.95454417 2.6323399,1.4244912
L 3.4013489,2.278941 3.142384,4.8597057
C 2.9999533,6.2791263 2.8834195,7.449247 2.8834195,7.4599747
c 0,0.015862 -1.7270302,1.1103051 -1.7484742,1.1080316 -0.00351,-3.729e-4 -0.088257,-0.058498 -0.18830566,-0.1291656
z" fill="#000"/><path d="M 2.1511766,9.2969995
C 1.7651082,9.0214566 1.4469599,8.7940329 1.4441803,8.791614 1.4414032,8.7892044 1.8132277,8.5536512 2.2704618,8.2681831
l 0.8313354,-0.5190329 2.0242731,6.1e-6 2.0242732,6.2e-6 0.7073168,0.5032949
C 8.2466848,8.5292696 8.565368,8.7603056 8.565845,8.7658708 8.5663351,8.7714372 8.1987294,9.0059389 7.7489717,9.2869877
L 6.9312306,9.7979867
H 4.8921748 2.8531194
Z" fill="#000"/></g><g transform="translate(65, 5)"><path d="M 2.8860356,1.193931
C 2.4632488,0.72417059 2.1173329,0.33572978 2.1173329,0.33072858
c 0,-0.0229926 0.2387853,-0.13893721 0.3831591,-0.18604925
C 2.913267,0.00998169 3.1409007,4.0360089e-4 5.9388577,3.7821799e-6 7.8246383,-2.6535013e-4 8.818887,0.01383204 8.846283,0.04122799 8.8499177,0.04486271 8.5828927,0.49788178 8.2528944,1.047938
L 7.6528976,2.0480406
H 5.653818 3.6547379
Z" fill="#000"/><path d="m 7.4498212,17.393932
c -0.00695,-0.01818 -0.197829,-0.496033 -0.4241783,-1.06188
L 6.6140988,15.30324 6.8751967,12.692148
c 0.143604,-1.4361 0.2682678,-2.617745 0.2770303,-2.625877 0.033693,-0.03127 1.6859126,-1.0566068 1.7142082,-1.0638088 0.022752,-0.00579 0.227505,0.1259886 0.3902006,0.2511315 0.00606,0.00466 -0.6327488,6.3766683 -0.654698,6.5305583 -0.098129,0.687999 -0.287116,1.111421 -0.6146753,1.377168 -0.1035731,0.08403 -0.3775931,0.230205 -0.4759795,0.253914 -0.037883,0.0091 -0.05166,0.0044 -0.061462,-0.0213
z" fill="#000"/><path d="M 1.3135242,17.529288
C 1.1303815,17.512972 0.90371529,17.468459 0.77063773,17.422674 0.6522089,17.381928 0.42166257,17.262388 0.42863265,17.245341
c 0.002818,-0.0068 0.43401076,-0.402446 0.95824535,-0.879104
l 0.9531543,-0.866651 1.9926997,0.0042 1.9926993,0.0042 0.3987148,0.996589
c 0.2192926,0.548124 0.396565,0.998738 0.3939378,1.001366 -0.00261,0.0026 -0.107844,0.01315 -0.2338151,0.02338 -0.2666917,0.02166 -5.3275981,0.02161 -5.5707446,-4.6e-5
z" fill="#000"/><path d="M 0.94663964,8.4388407
C 0.80712374,8.3402954 0.76456817,8.300775 0.76402623,8.2692502 0.76214761,8.159247 1.4093124,1.7937065 1.4418888,1.6019038 1.5078777,1.2133714 1.6137986,0.91081038 1.758341,0.69796225 1.798911,0.63822065 1.839131,0.58499856 1.847718,0.57969147 1.856308,0.57438247 2.2093852,0.95454417 2.6323399,1.4244912
L 3.4013489,2.278941 3.142384,4.8597057
C 2.9999533,6.2791263 2.8834195,7.449247 2.8834195,7.4599747
c 0,0.015862 -1.7270302,1.1103051 -1.7484742,1.1080316 -0.00351,-3.729e-4 -0.088257,-0.058498 -0.18830566,-0.1291656
z" fill="#000"/><path d="M 2.1511766,9.2969995
C 1.7651082,9.0214566 1.4469599,8.7940329 1.4441803,8.791614 1.4414032,8.7892044 1.8132277,8.5536512 2.2704618,8.2681831
l 0.8313354,-0.5190329 2.0242731,6.1e-6 2.0242732,6.2e-6 0.7073168,0.5032949
C 8.2466848,8.5292696 8.565368,8.7603056 8.565845,8.7658708 8.5663351,8.7714372 8.1987294,9.0059389 7.7489717,9.2869877
L 6.9312306,9.7979867
H 4.8921748 2.8531194
Z" fill="#000"/></g><g transform="translate(77, 5)"><path d="M 2.8860356,1.193931
C 2.4632488,0.72417059 2.1173329,0.33572978 2.1173329,0.33072858
c 0,-0.0229926 0.2387853,-0.13893721 0.3831591,-0.18604925
C 2.913267,0.00998169 3.1409007,4.0360089e-4 5.9388577,3.7821799e-6 7.8246383,-2.6535013e-4 8.818887,0.01383204 8.846283,0.04122799 8.8499177,0.04486271 8.5828927,0.49788178 8.2528944,1.047938
L 7.6528976,2.0480406
H 5.653818 3.6547379
Z" fill="#000"/><path d="m 7.4498212,17.393932
c -0.00695,-0.01818 -0.197829,-0.496033 -0.4241783,-1.06188
L 6.6140988,15.30324 6.8751967,12.692148
c 0.143604,-1.4361 0.2682678,-2.617745 0.2770303,-2.625877 0.033693,-0.03127 1.6859126,-1.0566068 1.7142082,-1.0638088 0.022752,-0.00579 0.227505,0.1259886 0.3902006,0.2511315 0.00606,0.00466 -0.6327488,6.3766683 -0.654698,6.5305583 -0.098129,0.687999 -0.287116,1.111421 -0.6146753,1.377168 -0.1035731,0.08403 -0.3775931,0.230205 -0.4759795,0.253914 -0.037883,0.0091 -0.05166,0.0044 -0.061462,-0.0213
z" fill="#000"/><path d="M 1.3135242,17.529288
C 1.1303815,17.512972 0.90371529,17.468459 0.77063773,17.422674 0.6522089,17.381928 0.42166257,17.262388 0.42863265,17.245341
c 0.002818,-0.0068 0.43401076,-0.402446 0.95824535,-0.879104
l 0.9531543,-0.866651 1.9926997,0.0042 1.9926993,0.0042 0.3987148,0.996589
c 0.2192926,0.548124 0.396565,0.998738 0.3939378,1.001366 -0.00261,0.0026 -0.107844,0.01315 -0.2338151,0.02338 -0.2666917,0.02166 -5.3275981,0.02161 -5.5707446,-4.6e-5
z" fill="#000"/><path d="M 0.13412757,16.875029
C 0.03037524,16.643837 -0.01359665,16.336252 0.00364701,15.962311 0.01264804,15.767106 0.65149829,9.2762147 0.66219089,9.2713201
c 0.001715,-7.76e-4 0.10178347,-0.063001 0.22234698,-0.138245 0.12056353,-0.075244 0.22795793,-0.136807 0.23865423,-0.136807 0.010696,0 0.3509942,0.2368115 0.7562176,0.526248 0.5498145,0.3927126 0.7367704,0.5352969 0.7367704,0.5619089 0,0.06695 -0.4971973,5.031391 -0.5114066,5.106317 -0.013436,0.07085 -0.062627,0.118712 -0.9567126,0.930884 -0.51840112,0.470908 -0.94822992,0.856196 -0.95517509,0.856196 -0.006947,0 -0.0333863,-0.04626 -0.0587582,-0.102793
z" fill="#000"/><path d="M 0.94663964,8.4388407
C 0.80712374,8.3402954 0.76456817,8.300775 0.76402623,8.2692502 0.76214761,8.159247 1.4093124,1.7937065 1.4418888,1.6019038 1.5078777,1.2133714 1.6137986,0.91081038 1.758341,0.69796225 1.798911,0.63822065 1.839131,0.58499856 1.847718,0.57969147 1.856308,0.57438247 2.2093852,0.95454417 2.6323399,1.4244912
L 3.4013489,2.278941 3.142384,4.8597057
C 2.9999533,6.2791263 2.8834195,7.449247 2.8834195,7.4599747
c 0,0.015862 -1.7270302,1.1103051 -1.7484742,1.1080316 -0.00351,-3.729e-4 -0.088257,-0.058498 -0.18830566,-0.1291656
z" fill="#000"/><path d="M 2.1511766,9.2969995
C 1.7651082,9.0214566 1.4469599,8.7940329 1.4441803,8.791614 1.4414032,8.7892044 1.8132277,8.5536512 2.2704618,8.2681831
l 0.8313354,-0.5190329 2.0242731,6.1e-6 2.0242732,6.2e-6 0.7073168,0.5032949
C 8.2466848,8.5292696 8.565368,8.7603056 8.565845,8.7658708 8.5663351,8.7714372 8.1987294,9.0059389 7.7489717,9.2869877
L 6.9312306,9.7979867
H 4.8921748 2.8531194
Z" fill="#000"/></g><g transform="translate(89, 5)"><path d="M 2.8860356,1.193931
C 2.4632488,0.72417059 2.1173329,0.33572978 2.1173329,0.33072858
c 0,-0.0229926 0.2387853,-0.13893721 0.3831591,-0.18604925
C 2.913267,0.00998169 3.1409007,4.0360089e-4 5.9388577,3.7821799e-6 7.8246383,-2.6535013e-4 8.818887,0.01383204 8.846283,0.04122799 8.8499177,0.04486271 8.5828927,0.49788178 8.2528944,1.047938
L 7.6528976,2.0480406
H 5.653818 3.6547379
Z" fill="#000"/><path d="M 8.1508504,8.0435605
C 7.750647,7.7563645 7.4167289,7.5145085 7.4088105,7.5061025 7.4008918,7.4976977 7.512139,6.3163012 7.6560263,4.8807797
L 7.9176401,2.27074 8.5599568,1.201782
C 9.2894761,-0.01230034 9.1951871,0.09651527 9.4218794,0.2070678 9.5961468,0.29205398 9.7844512,0.4766093 9.8641977,0.64057908 9.980081,0.87885143 9.9987957,0.99310034 9.9999033,1.4690214 10.000883,1.8959339 10.000393,1.90158 9.6835413,5.0678471 9.5089953,6.8120303 9.3598964,8.251115 9.3522113,8.2658132 9.3390119,8.2910601 8.9090892,8.5703529 8.8882651,8.5672099 8.8828907,8.5663931 8.5510534,8.3307561 8.1508504,8.0435605
Z" fill="#000"/><path d="m 7.4498212,17.393932
c -0.00695,-0.01818 -0.197829,-0.496033 -0.4241783,-1.06188
L 6.6140988,15.30324 6.8751967,12.692148
c 0.143604,-1.4361 0.2682678,-2.617745 0.2770303,-2.625877 0.033693,-0.03127 1.6859126,-1.0566068 1.7142082,-1.0638088 0.022752,-0.00579 0.227505,0.1259886 0.3902006,0.2511315 0.00606,0.00466 -0.6327488,6.3766683 -0.654698,6.5305583 -0.098129,0.687999 -0.287116,1.111421 -0.6146753,1.377168 -0.1035731,0.08403 -0.3775931,0.230205 -0.4759795,0.253914 -0.037883,0.0091 -0.05166,0.0044 -0.061462,-0.0213
z" fill="#000"/><path d="M 0.94663964,8.4388407
C 0.80712374,8.3402954 0.76456817,8.300775 0.76402623,8.2692502 0.76214761,8.159247 1.4093124,1.7937065 1.4418888,1.6019038 1.5078777,1.2133714 1.6137986,0.91081038 1.758341,0.69796225 1.798911,0.63822065 1.839131,0.58499856 1.847718,0.57969147 1.856308,0.57438247 2.2093852,0.95454417 2.6323399,1.4244912
L 3.4013489,2.278941 3.142384,4.8597057
C 2.9999533,6.2791263 2.8834195,7.449247 2.8834195,7.4599747
c 0,0.015862 -1.7270302,1.1103051 -1.7484742,1.1080316 -0.00351,-3.729e-4 -0.088257,-0.058498 -0.18830566,-0.1291656
z" fill="#000"/></g><g transform="translate(101, 5)"><path d="M 2.8860356,1.193931
C 2.4632488,0.72417059 2.1173329,0.33572978 2.1173329,0.33072858
c 0,-0.0229926 0.2387853,-0.13893721 0.3831591,-0.18604925
C 2.913267,0.00998169 3.1409007,4.0360089e-4 5.9388577,3.7821799e-6 7.8246383,-2.6535013e-4 8.818887,0.01383204 8.846283,0.04122799 8.8499177,0.04486271 8.5828927,0.49788178 8.2528944,1.047938
L 7.6528976,2.0480406
H 5.653818 3.6547379
Z" fill="#000"/><path d="M 8.1508504,8.0435605
C 7.750647,7.7563645 7.4167289,7.5145085 7.4088105,7.5061025 7.4008918,7.4976977 7.512139,6.3163012 7.6560263,4.8807797
L 7.9176401,2.27074 8.5599568,1.201782
C 9.2894761,-0.01230034 9.1951871,0.09651527 9.4218794,0.2070678 9.5961468,0.29205398 9.7844512,0.4766093 9.8641977,0.64057908 9.980081,0.87885143 9.9987957,0.99310034 9.9999033,1.4690214 10.000883,1.8959339 10.000393,1.90158 9.6835413,5.0678471 9.5089953,6.8120303 9.3598964,8.251115 9.3522113,8.2658132 9.3390119,8.2910601 8.9090892,8.5703529 8.8882651,8.5672099 8.8828907,8.5663931 8.5510534,8.3307561 8.1508504,8.0435605
Z" fill="#000"/><path d="m 7.4498212,17.393932
c -0.00695,-0.01818 -0.197829,-0.496033 -0.4241783,-1.06188
L 6.6140988,15.30324 6.8751967,12.692148
c 0.143604,-1.4361 0.2682678,-2.617745 0.2770303,-2.625877 0.033693,-0.03127 1.6859126,-1.0566068 1.7142082,-1.0638088 0.022752,-0.00579 0.227505,0.1259886 0.3902006,0.2511315 0.00606,0.00466 -0.6327488,6.3766683 -0.654698,6.5305583 -0.098129,0.687999 -0.287116,1.111421 -0.6146753,1.377168 -0.1035731,0.08403 -0.3775931,0.230205 -0.4759795,0.253914 -0.037883,0.0091 -0.05166,0.0044 -0.061462,-0.0213
z" fill="#000"/><path d="M 1.3135242,17.529288
C 1.1303815,17.512972 0.90371529,17.468459 0.77063773,17.422674 0.6522089,17.381928 0.42166257,17.262388 0.42863265,17.245341
c 0.002818,-0.0068 0.43401076,-0.402446 0.95824535,-0.879104
l 0.9531543,-0.866651 1.9926997,0.0042 1.9926993,0.0042 0.3987148,0.996589
c 0.2192926,0.548124 0.396565,0.998738 0.3939378,1.001366 -0.00261,0.0026 -0.107844,0.01315 -0.2338151,0.02338 -0.2666917,0.02166 -5.3275981,0.02161 -5.5707446,-4.6e-5
z" fill="#000"/><path d="M 0.13412757,16.875029
C 0.03037524,16.643837 -0.01359665,16.336252 0.00364701,15.962311 0.01264804,15.767106 0.65149829,9.2762147 0.66219089,9.2713201
c 0.001715,-7.76e-4 0.10178347,-0.063001 0.22234698,-0.138245 0.12056353,-0.075244 0.22795793,-0.136807 0.23865423,-0.136807 0.010696,0 0.3509942,0.2368115 0.7562176,0.526248 0.5498145,0.3927126 0.7367704,0.5352969 0.7367704,0.5619089 0,0.06695 -0.4971973,5.031391 -0.5114066,5.106317 -0.013436,0.07085 -0.062627,0.118712 -0.9567126,0.930884 -0.51840112,0.470908 -0.94822992,0.856196 -0.95517509,0.856196 -0.006947,0 -0.0333863,-0.04626 -0.0587582,-0.102793
z" fill="#000"/><path d="M 0.94663964,8.4388407
C 0.80712374,8.3402954 0.76456817,8.300775 0.76402623,8.2692502 0.76214761,8.159247 1.4093124,1.7937065 1.4418888,1.6019038 1.5078777,1.2133714 1.6137986,0.91081038 1.758341,0.69796225 1.798911,0.63822065 1.839131,0.58499856 1.847718,0.57969147 1.856308,0.57438247 2.2093852,0.95454417 2.6323399,1.4244912
L 3.4013489,2.278941 3.142384,4.8597057
C 2.9999533,6.2791263 2.8834195,7.449247 2.8834195,7.4599747
c 0,0.015862 -1.7270302,1.1103051 -1.7484742,1.1080316 -0.00351,-3.729e-4 -0.088257,-0.058498 -0.18830566,-0.1291656
z" fill="#000"/><path d="M 2.1511766,9.2969995
C 1.7651082,9.0214566 1.4469599,8.7940329 1.4441803,8.791614 1.4414032,8.7892044 1.8132277,8.5536512 2.2704618,8.2681831
l 0.8313354,-0.5190329 2.0242731,6.1e-6 2.0242732,6.2e-6 0.7073168,0.5032949
C 8.2466848,8.5292696 8.565368,8.7603056 8.565845,8.7658708 8.5663351,8.7714372 8.1987294,9.0059389 7.7489717,9.2869877
L 6.9312306,9.7979867
H 4.8921748 2.8531194
Z" fill="#000"/></g><g transform="translate(113, 5)"><path d="M 2.8860356,1.193931
C 2.4632488,0.72417059 2.1173329,0.33572978 2.1173329,0.33072858
c 0,-0.0229926 0.2387853,-0.13893721 0.3831591,-0.18604925
C 2.913267,0.00998169 3.1409007,4.0360089e-4 5.9388577,3.7821799e-6 7.8246383,-2.6535013e-4 8.818887,0.01383204 8.846283,0.04122799 8.8499177,0.04486271 8.5828927,0.49788178 8.2528944,1.047938
L 7.6528976,2.0480406
H 5.653818 3.6547379
Z" fill="#000"/><path d="M 8.1508504,8.0435605
C 7.750647,7.7563645 7.4167289,7.5145085 7.4088105,7.5061025 7.4008918,7.4976977 7.512139,6.3163012 7.6560263,4.8807797
L 7.9176401,2.27074 8.5599568,1.201782
C 9.2894761,-0.01230034 9.1951871,0.09651527 9.4218794,0.2070678 9.5961468,0.29205398 9.7844512,0.4766093 9.8641977,0.64057908 9.980081,0.87885143 9.9987957,0.99310034 9.9999033,1.4690214 10.000883,1.8959339 10.000393,1.90158 9.6835413,5.0678471 9.5089953,6.8120303 9.3598964,8.251115 9.3522113,8.2658132 9.3390119,8.2910601 8.9090892,8.5703529 8.8882651,8.5672099 8.8828907,8.5663931 8.5510534,8.3307561 8.1508504,8.0435605
Z" fill="#000"/><path d="m 7.4498212,17.393932
c -0.00695,-0.01818 -0.197829,-0.496033 -0.4241783,-1.06188
L 6.6140988,15.30324 6.8751967,12.692148
c 0.143604,-1.4361 0.2682678,-2.617745 0.2770303,-2.625877 0.033693,-0.03127 1.6859126,-1.0566068 1.7142082,-1.0638088 0.022752,-0.00579 0.227505,0.1259886 0.3902006,0.2511315 0.00606,0.00466 -0.6327488,6.3766683 -0.654698,6.5305583 -0.098129,0.687999 -0.287116,1.111421 -0.6146753,1.377168 -0.1035731,0.08403 -0.3775931,0.230205 -0.4759795,0.253914 -0.037883,0.0091 -0.05166,0.0044 -0.061462,-0.0213
z" fill="#000"/><path d="M 1.3135242,17.529288
C 1.1303815,17.512972 0.90371529,17.468459 0.77063773,17.422674 0.6522089,17.381928 0.42166257,17.262388 0.42863265,17.245341
c 0.002818,-0.0068 0.43401076,-0.402446 0.95824535,-0.879104
l 0.9531543,-0.866651 1.9926997,0.0042 1.9926993,0.0042 0.3987148,0.996589
c 0.2192926,0.548124 0.396565,0.998738 0.3939378,1.001366 -0.00261,0.0026 -0.107844,0.01315 -0.2338151,0.02338 -0.2666917,0.02166 -5.3275981,0.02161 -5.5707446,-4.6e-5
z" fill="#000"/><path d="M 0.94663964,8.4388407
C 0.80712374,8.3402954 0.76456817,8.300775 0.76402623,8.2692502 0.76214761,8.159247 1.4093124,1.7937065 1.4418888,1.6019038 1.5078777,1.2133714 1.6137986,0.91081038 1.758341,0.69796225 1.798911,0.63822065 1.839131,0.58499856 1.847718,0.57969147 1.856308,0.57438247 2.2093852,0.95454417 2.6323399,1.4244912
L 3.4013489,2.278941 3.142384,4.8597057
C 2.9999533,6.2791263 2.8834195,7.449247 2.8834195,7.4599747
c 0,0.015862 -1.7270302,1.1103051 -1.7484742,1.1080316 -0.00351,-3.729e-4 -0.088257,-0.058498 -0.18830566,-0.1291656
z" fill="#000"/><path d="M 2.1511766,9.2969995
C 1.7651082,9.0214566 1.4469599,8.7940329 1.4441803,8.791614 1.4414032,8.7892044 1.8132277,8.5536512 2.2704618,8.2681831
l 0.8313354,-0.5190329 2.0242731,6.1e-6 2.0242732,6.2e-6 0.7073168,0.5032949
C 8.2466848,8.5292696 8.565368,8.7603056 8.565845,8.7658708 8.5663351,8.7714372 8.1987294,9.0059389 7.7489717,9.2869877
L 6.9312306,9.7979867
H 4.8921748 2.8531194
Z" fill="#000"/></g><g transform="translate(125, 5)"><path d="M 2.8860356,1.193931
C 2.4632488,0.72417059 2.1173329,0.33572978 2.1173329,0.33072858
c 0,-0.0229926 0.2387853,-0.13893721 0.3831591,-0.18604925
C 2.913267,0.00998169 3.1409007,4.0360089e-4 5.9388577,3.7821799e-6 7.8246383,-2.6535013e-4 8.818887,0.01383204 8.846283,0.04122799 8.8499177,0.04486271 8.5828927,0.49788178 8.2528944,1.047938
L 7.6528976,2.0480406
H 5.653818 3.6547379
Z" fill="#000"/><path d="M 8.1508504,8.0435605
C 7.750647,7.7563645 7.4167289,7.5145085 7.4088105,7.5061025 7.4008918,7.4976977 7.512139,6.3163012 7.6560263,4.8807797
L 7.9176401,2.27074 8.5599568,1.201782
C 9.2894761,-0.01230034 9.1951871,0.09651527 9.4218794,0.2070678 9.5961468,0.29205398 9.7844512,0.4766093 9.8641977,0.64057908 9.980081,0.87885143 9.9987957,0.99310034 9.9999033,1.4690214 10.000883,1.8959339 10.000393,1.90158 9.6835413,5.0678471 9.5089953,6.8120303 9.3598964,8.251115 9.3522113,8.2658132 9.3390119,8.2910601 8.9090892,8.5703529 8.8882651,8.5672099 8.8828907,8.5663931 8.5510534,8.3307561 8.1508504,8.0435605
Z" fill="#000"/><path d="m 7.4498212,17.393932
c -0.00695,-0.01818 -0.197829,-0.496033 -0.4241783,-1.06188
L 6.6140988,15.30324 6.8751967,12.692148
c 0.143604,-1.4361 0.2682678,-2.617745 0.2770303,-2.625877 0.033693,-0.03127 1.6859126,-1.0566068 1.7142082,-1.0638088 0.022752,-0.00579 0.227505,0.1259886 0.3902006,0.2511315 0.00606,0.00466 -0.6327488,6.3766683 -0.654698,6.5305583 -0.098129,0.687999 -0.287116,1.111421 -0.6146753,1.377168 -0.1035731,0.08403 -0.3775931,0.230205 -0.4759795,0.253914 -0.037883,0.0091 -0.05166,0.0044 -0.061462,-0.0213
z" fill="#000"/><path d="M 0.13412757,16.875029
C 0.03037524,16.643837 -0.01359665,16.336252 0.00364701,15.962311 0.01264804,15.767106 0.65149829,9.2762147 0.66219089,9.2713201
c 0.001715,-7.76e-4 0.10178347,-0.063001 0.22234698,-0.138245 0.12056353,-0.075244 0.22795793,-0.136807 0.23865423,-0.136807 0.010696,0 0.3509942,0.2368115 0.7562176,0.526248 0.5498145,0.3927126 0.7367704,0.5352969 0.7367704,0.5619089 0,0.06695 -0.4971973,5.031391 -0.5114066,5.106317 -0.013436,0.07085 -0.062627,0.118712 -0.9567126,0.930884 -0.51840112,0.470908 -0.94822992,0.856196 -0.95517509,0.856196 -0.006947,0 -0.0333863,-0.04626 -0.0587582,-0.102793
z" fill="#000"/><path d="M 0.94663964,8.4388407
C 0.80712374,8.3402954 0.76456817,8.300775 0.76402623,8.2692502 0.76214761,8.159247 1.4093124,1.7937065 1.4418888,1.6019038 1.5078777,1.2133714 1.6137986,0.91081038 1.758341,0.69796225 1.798911,0.63822065 1.839131,0.58499856 1.847718,0.57969147 1.856308,0.57438247 2.2093852,0.95454417 2.6323399,1.4244912
L 3.4013489,2.278941 3.142384,4.8597057
C 2.9999533,6.2791263 2.8834195,7.449247 2.8834195,7.4599747
c 0,0.015862 -1.7270302,1.1103051 -1.7484742,1.1080316 -0.00351,-3.729e-4 -0.088257,-0.058498 -0.18830566,-0.1291656
z" fill="#000"/><path d="M 2.1511766,9.2969995
C 1.7651082,9.0214566 1.4469599,8.7940329 1.4441803,8.791614 1.4414032,8.7892044 1.8132277,8.5536512 2.2704618,8.2681831
l 0.8313354,-0.5190329 2.0242731,6.1e-6 2.0242732,6.2e-6 0.7073168,0.5032949
C 8.2466848,8.5292696 8.565368,8.7603056 8.565845,8.7658708 8.5663351,8.7714372 8.1987294,9.0059389 7.7489717,9.2869877
L 6.9312306,9.7979867
H 4.8921748 2.8531194
Z" fill="#000"/></g><g transform="translate(137, 5)"><path d="m 7.4498212,17.393932
c -0.00695,-0.01818 -0.197829,-0.496033 -0.4241783,-1.06188
L 6.6140988,15.30324 6.8751967,12.692148
c 0.143604,-1.4361 0.2682678,-2.617745 0.2770303,-2.625877 0.033693,-0.03127 1.6859126,-1.0566068 1.7142082,-1.0638088 0.022752,-0.00579 0.227505,0.1259886 0.3902006,0.2511315 0.00606,0.00466 -0.6327488,6.3766683 -0.654698,6.5305583 -0.098129,0.687999 -0.287116,1.111421 -0.6146753,1.377168 -0.1035731,0.08403 -0.3775931,0.230205 -0.4759795,0.253914 -0.037883,0.0091 -0.05166,0.0044 -0.061462,-0.0213
z" fill="#000"/><path d="M 1.3135242,17.529288
C 1.1303815,17.512972 0.90371529,17.468459 0.77063773,17.422674 0.6522089,17.381928 0.42166257,17.262388 0.42863265,17.245341
c 0.002818,-0.0068 0.43401076,-0.402446 0.95824535,-0.879104
l 0.9531543,-0.866651 1.9926997,0.0042 1.9926993,0.0042 0.3987148,0.996589
c 0.2192926,0.548124 0.396565,0.998738 0.3939378,1.001366 -0.00261,0.0026 -0.107844,0.01315 -0.2338151,0.02338 -0.2666917,0.02166 -5.3275981,0.02161 -5.5707446,-4.6e-5
z" fill="#000"/><path d="M 0.13412757,16.875029
C 0.03037524,16.643837 -0.01359665,16.336252 0.00364701,15.962311 0.01264804,15.767106 0.65149829,9.2762147 0.66219089,9.2713201
c 0.001715,-7.76e-4 0.10178347,-0.063001 0.22234698,-0.138245 0.12056353,-0.075244 0.22795793,-0.136807 0.23865423,-0.136807 0.010696,0 0.3509942,0.2368115 0.7562176,0.526248 0.5498145,0.3927126 0.7367704,0.5352969 0.7367704,0.5619089 0,0.06695 -0.4971973,5.031391 -0.5114066,5.106317 -0.013436,0.07085 -0.062627,0.118712 -0.9567126,0.930884 -0.51840112,0.470908 -0.94822992,0.856196 -0.95517509,0.856196 -0.006947,0 -0.0333863,-0.04626 -0.0587582,-0.102793
z" fill="#000"/><path d="M 0.94663964,8.4388407
C 0.80712374,8.3402954 0.76456817,8.300775 0.76402623,8.2692502 0.76214761,8.159247 1.4093124,1.7937065 1.4418888,1.6019038 1.5078777,1.2133714 1.6137986,0.91081038 1.758341,0.69796225 1.798911,0.63822065 1.839131,0.58499856 1.847718,0.57969147 1.856308,0.57438247 2.2093852,0.95454417 2.6323399,1.4244912
L 3.4013489,2.278941 3.142384,4.8597057
C 2.9999533,6.2791263 2.8834195,7.449247 2.8834195,7.4599747
c 0,0.015862 -1.7270302,1.1103051 -1.7484742,1.1080316 -0.00351,-3.729e-4 -0.088257,-0.058498 -0.18830566,-0.1291656
z" fill="#000"/><path d="M 2.1511766,9.2969995
C 1.7651082,9.0214566 1.4469599,8.7940329 1.4441803,8.791614 1.4414032,8.7892044 1.8132277,8.5536512 2.2704618,8.2681831
l 0.8313354,-0.5190329 2.0242731,6.1e-6 2.0242732,6.2e-6 0.7073168,0.5032949
C 8.2466848,8.5292696 8.565368,8.7603056 8.565845,8.7658708 8.5663351,8.7714372 8.1987294,9.0059389 7.7489717,9.2869877
L 6.9312306,9.7979867
H 4.8921748 2.8531194
Z" fill="#000"/></g><g transform="translate(149, 5)"><path d="M 1.3135242,17.529288
C 1.1303815,17.512972 0.90371529,17.468459 0.77063773,17.422674 0.6522089,17.381928 0.42166257,17.262388 0.42863265,17.245341
c 0.002818,-0.0068 0.43401076,-0.402446 0.95824535,-0.879104
l 0.9531543,-0.866651 1.9926997,0.0042 1.9926993,0.0042 0.3987148,0.996589
c 0.2192926,0.548124 0.396565,0.998738 0.3939378,1.001366 -0.00261,0.0026 -0.107844,0.01315 -0.2338151,0.02338 -0.2666917,0.02166 -5.3275981,0.02161 -5.5707446,-4.6e-5
z" fill="#000"/><path d="M 0.13412757,16.875029
C 0.03037524,16.643837 -0.01359665,16.336252 0.00364701,15.962311 0.01264804,15.767106 0.65149829,9.2762147 0.66219089,9.2713201
c 0.001715,-7.76e-4 0.10178347,-0.063001 0.22234698,-0.138245 0.12056353,-0.075244 0.22795793,-0.136807 0.23865423,-0.136807 0.010696,0 0.3509942,0.2368115 0.7562176,0.526248 0.5498145,0.3927126 0.7367704,0.5352969 0.7367704,0.5619089 0,0.06695 -0.4971973,5.031391 -0.5114066,5.106317 -0.013436,0.07085 -0.062627,0.118712 -0.9567126,0.930884 -0.51840112,0.470908 -0.94822992,0.856196 -0.95517509,0.856196 -0.006947,0 -0.0333863,-0.04626 -0.0587582,-0.102793
z" fill="#000"/><path d="M 2.1511766,9.2969995
C 1.7651082,9.0214566 1.4469599,8.7940329 1.4441803,8.791614 1.4414032,8.7892044 1.8132277,8.5536512 2.2704618,8.2681831
l 0.8313354,-0.5190329 2.0242731,6.1e-6 2.0242732,6.2e-6 0.7073168,0.5032949
C 8.2466848,8.5292696 8.565368,8.7603056 8.565845,8.7658708 8.5663351,8.7714372 8.1987294,9.0059389 7.7489717,9.2869877
L 6.9312306,9.7979867
H 4.8921748 2.8531194
Z" fill="#000"/></g><g transform="translate(161, 5)"><path d="M 8.1508504,8.0435605
C 7.750647,7.7563645 7.4167289,7.5145085 7.4088105,7.5061025 7.4008918,7.4976977 7.512139,6.3163012 7.6560263,4.8807797
L 7.9176401,2.27074 8.5599568,1.201782
C 9.2894761,-0.01230034 9.1951871,0.09651527 9.4218794,0.2070678 9.5961468,0.29205398 9.7844512,0.4766093 9.8641977,0.64057908 9.980081,0.87885143 9.9987957,0.99310034 9.9999033,1.4690214 10.000883,1.8959339 10.000393,1.90158 9.6835413,5.0678471 9.5089953,6.8120303 9.3598964,8.251115 9.3522113,8.2658132 9.3390119,8.2910601 8.9090892,8.5703529 8.8882651,8.5672099 8.8828907,8.5663931 8.5510534,8.3307561 8.1508504,8.0435605
Z" fill="#000"/><path d="m 7.4498212,17.393932
c -0.00695,-0.01818 -0.197829,-0.496033 -0.4241783,-1.06188
L 6.6140988,15.30324 6.8751967,12.692148
c 0.143604,-1.4361 0.2682678,-2.617745 0.2770303,-2.625877 0.033693,-0.03127 1.6859126,-1.0566068 1.7142082,-1.0638088 0.022752,-0.00579 0.227505,0.1259886 0.3902006,0.2511315 0.00606,0.00466 -0.6327488,6.3766683 -0.654698,6.5305583 -0.098129,0.687999 -0.287116,1.111421 -0.6146753,1.377168 -0.1035731,0.08403 -0.3775931,0.230205 -0.4759795,0.253914 -0.037883,0.0091 -0.05166,0.0044 -0.061462,-0.0213
z" fill="#000"/><path d="M 1.3135242,17.529288
C 1.1303815,17.512972 0.90371529,17.468459 0.77063773,17.422674 0.6522089,17.381928 0.42166257,17.262388 0.42863265,17.245341
c 0.002818,-0.0068 0.43401076,-0.402446 0.95824535,-0.879104
l 0.9531543,-0.866651 1.9926997,0.0042 1.9926993,0.0042 0.3987148,0.996589
c 0.2192926,0.548124 0.396565,0.998738 0.3939378,1.001366 -0.00261,0.0026 -0.107844,0.01315 -0.2338151,0.02338 -0.2666917,0.02166 -5.3275981,0.02161 -5.5707446,-4.6e-5
z" fill="#000"/><path d="M 0.13412757,16.875029
C 0.03037524,16.643837 -0.01359665,16.336252 0.00364701,15.962311 0.01264804,15.767106 0.65149829,9.2762147 0.66219089,9.2713201
c 0.001715,-7.76e-4 0.10178347,-0.063001 0.22234698,-0.138245 0.12056353,-0.075244 0.22795793,-0.136807 0.23865423,-0.136807 0.010696,0 0.3509942,0.2368115 0.7562176,0.526248 0.5498145,0.3927126 0.7367704,0.5352969 0.7367704,0.5619089 0,0.06695 -0.4971973,5.031391 -0.5114066,5.106317 -0.013436,0.07085 -0.062627,0.118712 -0.9567126,0.930884 -0.51840112,0.470908 -0.94822992,0.856196 -0.95517509,0.856196 -0.006947,0 -0.0333863,-0.04626 -0.0587582,-0.102793
z" fill="#000"/><path d="M 2.1511766,9.2969995
C 1.7651082,9.0214566 1.4469599,8.7940329 1.4441803,8.791614 1.4414032,8.7892044 1.8132277,8.5536512 2.2704618,8.2681831
l 0.8313354,-0.5190329 2.0242731,6.1e-6 2.0242732,6.2e-6 0.7073168,0.5032949
C 8.2466848,8.5292696 8.565368,8.7603056 8.565845,8.7658708 8.5663351,8.7714372 8.1987294,9.0059389 7.7489717,9.2869877
L 6.9312306,9.7979867
H 4.8921748 2.8531194
Z" fill="#000"/></g><g transform="translate(173, 5)"><path d="M 2.8860356,1.193931
C 2.4632488,0.72417059 2.1173329,0.33572978 2.1173329,0.33072858
c 0,-0.0229926 0.2387853,-0.13893721 0.3831591,-0.18604925
C 2.913267,0.00998169 3.1409007,4.0360089e-4 5.9388577,3.7821799e-6 7.8246383,-2.6535013e-4 8.818887,0.01383204 8.846283,0.04122799 8.8499177,0.04486271 8.5828927,0.49788178 8.2528944,1.047938
L 7.6528976,2.0480406
H 5.653818 3.6547379
Z" fill="#000"/><path d="M 1.3135242,17.529288
C 1.1303815,17.512972 0.90371529,17.468459 0.77063773,17.422674 0.6522089,17.381928 0.42166257,17.262388 0.42863265,17.245341
c 0.002818,-0.0068 0.43401076,-0.402446 0.95824535,-0.879104
l 0.9531543,-0.866651 1.9926997,0.0042 1.9926993,0.0042 0.3987148,0.996589
c 0.2192926,0.548124 0.396565,0.998738 0.3939378,1.001366 -0.00261,0.0026 -0.107844,0.01315 -0.2338151,0.02338 -0.2666917,0.02166 -5.3275981,0.02161 -5.5707446,-4.6e-5
z" fill="#000"/><path d="M 0.13412757,16.875029
C 0.03037524,16.643837 -0.01359665,16.336252 0.00364701,15.962311 0.01264804,15.767106 0.65149829,9.2762147 0.66219089,9.2713201
c 0.001715,-7.76e-4 0.10178347,-0.063001 0.22234698,-0.138245 0.12056353,-0.075244 0.22795793,-0.136807 0.23865423,-0.136807 0.010696,0 0.3509942,0.2368115 0.7562176,0.526248 0.5498145,0.3927126 0.7367704,0.5352969 0.7367704,0.5619089 0,0.06695 -0.4971973,5.031391 -0.5114066,5.106317 -0.013436,0.07085 -0.062627,0.118712 -0.9567126,0.930884 -0.51840112,0.470908 -0.94822992,0.856196 -0.95517509,0.856196 -0.006947,0 -0.0333863,-0.04626 -0.0587582,-0.102793
z" fill="#000"/><path d="M 0.94663964,8.4388407
C 0.80712374,8.3402954 0.76456817,8.300775 0.76402623,8.2692502 0.76214761,8.159247 1.4093124,1.7937065 1.4418888,1.6019038 1.5078777,1.2133714 1.6137986,0.91081038 1.758341,0.69796225 1.798911,0.63822065 1.839131,0.58499856 1.847718,0.57969147 1.856308,0.57438247 2.2093852,0.95454417 2.6323399,1.4244912
L 3.4013489,2.278941 3.142384,4.8597057
C 2.9999533,6.2791263 2.8834195,7.449247 2.8834195,7.4599747
c 0,0.015862 -1.7270302,1.1103051 -1.7484742,1.1080316 -0.00351,-3.729e-4 -0.088257,-0.058498 -0.18830566,-0.1291656
z" fill="#000"/><path d="M 2.1511766,9.2969995
C 1.7651082,9.0214566 1.4469599,8.7940329 1.4441803,8.791614 1.4414032,8.7892044 1.8132277,8.5536512 2.2704618,8.2681831
l 0.8313354,-0.5190329 2.0242731,6.1e-6 2.0242732,6.2e-6 0.7073168,0.5032949
C 8.2466848,8.5292696 8.565368,8.7603056 8.565845,8.7658708 8.5663351,8.7714372 8.1987294,9.0059389 7.7489717,9.2869877
L 6.9312306,9.7979867
H 4.8921748 2.8531194
Z" fill="#000"/></g><g transform="translate(185, 5)"><path d="M 2.8860356,1.193931
C 2.4632488,0.72417059 2.1173329,0.33572978 2.1173329,0.33072858
c 0,-0.0229926 0.2387853,-0.13893721 0.3831591,-0.18604925
C 2.913267,0.00998169 3.1409007,4.0360089e-4 5.9388577,3.7821799e-6 7.8246383,-2.6535013e-4 8.818887,0.01383204 8.846283,0.04122799 8.8499177,0.04486271 8.5828927,0.49788178 8.2528944,1.047938
L 7.6528976,2.0480406
H 5.653818 3.6547379
Z" fill="#000"/><path d="M 8.1508504,8.0435605
C 7.750647,7.7563645 7.4167289,7.5145085 7.4088105,7.5061025 7.4008918,7.4976977 7.512139,6.3163012 7.6560263,4.8807797
L 7.9176401,2.27074 8.5599568,1.201782
C 9.2894761,-0.01230034 9.1951871,0.09651527 9.4218794,0.2070678 9.5961468,0.29205398 9.7844512,0.4766093 9.8641977,0.64057908 9.980081,0.87885143 9.9987957,0.99310034 9.9999033,1.4690214 10.000883,1.8959339 10.000393,1.90158 9.6835413,5.0678471 9.5089953,6.8120303 9.3598964,8.251115 9.3522113,8.2658132 9.3390119,8.2910601 8.9090892,8.5703529 8.8882651,8.5672099 8.8828907,8.5663931 8.5510534,8.3307561 8.1508504,8.0435605
Z" fill="#000"/><path d="m 7.4498212,17.393932
c -0.00695,-0.01818 -0.197829,-0.496033 -0.4241783,-1.06188
L 6.6140988,15.30324 6.8751967,12.692148
c 0.143604,-1.4361 0.2682678,-2.617745 0.2770303,-2.625877 0.033693,-0.03127 1.6859126,-1.0566068 1.7142082,-1.0638088 0.022752,-0.00579 0.227505,0.1259886 0.3902006,0.2511315 0.00606,0.00466 -0.6327488,6.3766683 -0.654698,6.5305583 -0.098129,0.687999 -0.287116,1.111421 -0.6146753,1.377168 -0.1035731,0.08403 -0.3775931,0.230205 -0.4759795,0.253914 -0.037883,0.0091 -0.05166,0.0044 -0.061462,-0.0213
z" fill="#000"/></g></svg>